HIERARCHY
ROOT Hips
{
    OFFSET 0.000000 0.000000 0.000000
    CHANNELS 6 Xposition Yposition Zposition Zrotation Xrotation Yrotation
    JOINT Chest
    {
        OFFSET -0.000000 0.078598 0.000000
        CHANNELS 3 Zrotation Xrotation Yrotation
        JOINT Chest2
        {
            OFFSET -0.000000 0.230468 0.000000
            CHANNELS 3 Zrotation Xrotation Yrotation
            JOINT Neck
            {
                OFFSET -0.000000 0.249638 0.000000
                CHANNELS 3 Zrotation Xrotation Yrotation
                JOINT Head
                {
                    OFFSET -0.000000 0.103998 0.019170
                    CHANNELS 3 Zrotation Xrotation Yrotation
                    End Site
                    {
                        OFFSET -0.000000 0.191701 0.000000
                    }
                }
            }
            JOINT LeftCollar
            {
                OFFSET 0.038274 0.205938 -0.001496
                CHANNELS 3 Zrotation Xrotation Yrotation
                JOINT LeftShoulder
                {
                    OFFSET 0.132388 0.000000 0.000000
                    CHANNELS 3 Zrotation Xrotation Yrotation
                    JOINT LeftElbow
                    {
                        OFFSET 0.250301 0.000000 0.000000
                        CHANNELS 3 Zrotation Xrotation Yrotation
                        JOINT LeftWrist
                        {
                            OFFSET 0.285291 0.000000 0.000000
                            CHANNELS 3 Zrotation Xrotation Yrotation
                            End Site
                            {
                                OFFSET 0.000000 -0.143776 0.000000
                            }
                        }
                    }
                }
            }
            JOINT RightCollar
            {
                OFFSET -0.038406 0.205938 -0.001496
                CHANNELS 3 Zrotation Xrotation Yrotation
                JOINT RightShoulder
                {
                    OFFSET -0.132388 0.000000 0.000000
                    CHANNELS 3 Zrotation Xrotation Yrotation
                    JOINT RightElbow
                    {
                        OFFSET -0.250301 0.000000 0.000000
                        CHANNELS 3 Zrotation Xrotation Yrotation
                        JOINT RightWrist
                        {
                            OFFSET -0.285291 0.000000 0.000000
                            CHANNELS 3 Zrotation Xrotation Yrotation
                            End Site
                            {
                                OFFSET -0.000000 -0.143776 0.000000
                            }
                        }
                    }
                }
            }
        }
    }
    JOINT LeftHip
    {
        OFFSET 0.095851 0.000000 0.000000
        CHANNELS 3 Zrotation Xrotation Yrotation
        JOINT LeftKnee
        {
            OFFSET -0.000000 -0.406444 0.000000
            CHANNELS 3 Zrotation Xrotation Yrotation
            JOINT LeftAnkle
            {
                OFFSET -0.000000 -0.408443 0.000000
                CHANNELS 3 Zrotation Xrotation Yrotation
                JOINT LeftToe
                {
                    OFFSET -0.000000 -0.062303 0.143776
                    CHANNELS 3 Zrotation Xrotation Yrotation
                    End Site
                    {
                        OFFSET -0.000000 0.000000 0.038340
                    }
                }
            }
        }
    }
    JOINT RightHip
    {
        OFFSET -0.095851 0.000000 0.000000
        CHANNELS 3 Zrotation Xrotation Yrotation
        JOINT RightKnee
        {
            OFFSET -0.000000 -0.406444 0.000000
            CHANNELS 3 Zrotation Xrotation Yrotation
            JOINT RightAnkle
            {
                OFFSET -0.000000 -0.408443 0.000000
                CHANNELS 3 Zrotation Xrotation Yrotation
                JOINT RightToe
                {
                    OFFSET -0.000000 -0.062303 0.143776
                    CHANNELS 3 Zrotation Xrotation Yrotation
                    End Site
                    {
                        OFFSET -0.000000 0.000000 0.038340
                    }
                }
            }
        }
    }
}
MOTION
Frames:    11
Frame Time:    0.016667
-0.005122    0.894187    1.520105    -0.885057    2.844865    -179.007751    1.219596    -3.685608    0.098751    -5.561962    7.353881    0.377912    2.570631    3.334097    0.075259    -1.270923    -3.413715    0.622983    15.527769    -2.484109    1.665759    -15.238811    -3.800232    -8.721777    -0.982981    -10.992751    0.493308    92.246803    -2.671060    11.040991    -12.540951    -2.988367    -0.315898    22.336298    -5.297764    -0.012345    -4.560710    -8.271236    -0.547244    -89.812119    2.346172    -8.296648    2.284343    8.778973    2.009976    -1.153870    -1.155834    -1.707776    -5.891279    -9.185550    12.479887    0.000000    0.000000    0.000000    -5.226305    10.357895    4.434481    1.777400    -4.435983    1.943801    0.534118    -7.738178    -15.016795    0.000000    0.000000    0.000000    
-0.004936    0.894188    1.520273    -0.879117    2.862473    -179.046875    0.027554    -1.229571    0.213900    -3.108955    1.808594    0.120098    1.129131    7.304965    0.064116    -1.042812    -2.793879    0.399091    11.124431    -0.191477    0.415130    -12.390456    -3.533342    -8.489465    -0.727277    -10.728874    0.654976    92.106567    -2.361845    10.768226    -11.224102    -0.663966    0.214242    20.078159    -4.951822    0.020320    -4.749618    -8.054402    -0.636158    -89.920105    2.417679    -8.082211    2.289815    8.791798    1.968878    -1.147596    -1.154794    -1.567030    -5.843418    -9.164266    12.426252    0.000000    0.000000    0.000000    -5.225812    10.361251    4.449744    1.772578    -4.428030    1.968231    0.712593    -7.781573    -14.799362    0.000000    0.000000    0.000000    
-0.004802    0.894078    1.520388    -0.872894    2.841836    -179.094955    1.169079    -3.686297    0.199519    -5.473121    7.216796    0.399533    2.608334    3.506189    0.035849    -1.340547    -3.368750    0.599958    15.239122    -2.664910    1.370955    -14.950990    -3.561476    -8.462252    -0.989479    -10.910256    0.560667    91.376984    -2.700848    10.937963    -12.414161    -2.783264    -0.273964    22.188519    -5.327350    0.039927    -4.525518    -8.243885    -0.597815    -89.785393    2.263001    -8.271502    2.292130    8.769361    2.014227    -1.140191    -1.159974    -1.467310    -5.844149    -9.200206    12.316835    0.000000    0.000000    0.000000    -5.231490    10.319149    4.457571    1.799817    -4.418325    2.000972    0.691198    -7.837299    -14.787397    0.000000    0.000000    0.000000    
-0.004040    0.895085    1.519793    -0.575469    3.281069    -179.080597    0.250751    -0.945617    0.190580    -2.971213    1.971875    0.114462    1.039223    7.172942    0.081428    -1.081188    -2.752142    0.402370    11.065389    -0.543809    0.316219    -12.403432    -3.090778    -8.205972    -0.773522    -10.887036    0.576679    91.537506    -2.815293    10.921003    -11.384926    -0.700059    0.285476    20.205679    -4.965957    -0.023628    -4.781154    -8.012026    -0.579712    -89.793800    2.386794    -8.040294    2.669935    9.210244    2.053068    -1.213114    -1.191494    -1.557113    -5.821645    -8.900047    12.393090    0.000000    0.000000    0.000000    -4.807447    10.841702    4.524410    1.674211    -4.552532    1.665325    0.932249    -7.148442    -14.604016    0.000000    0.000000    0.000000    
-0.004452    0.894177    1.520583    -0.873191    2.906924    -179.093353    0.049598    -1.304829    0.207789    -3.124205    1.948750    0.122339    1.058573    7.168586    0.082654    -1.058125    -2.714047    0.405213    11.045939    -0.535888    0.255549    -12.377194    -3.016112    -8.159471    -0.726506    -10.865706    0.578308    91.741562    -2.839661    10.905277    -11.265879    -0.722548    0.302557    20.162136    -4.928180    -0.012185    -4.831689    -8.054898    -0.598308    -89.854477    2.390043    -8.082945    2.311595    8.794229    2.006159    -1.132593    -1.111055    -1.447091    -5.854716    -9.189625    12.324348    0.000000    0.000000    0.000000    -5.220428    10.384894    4.463377    1.814848    -4.456677    1.749240    0.731606    -7.762418    -14.506577    0.000000    0.000000    0.000000    
-0.004400    0.894235    1.520645    -0.873851    2.932693    -179.075317    0.090669    -1.306402    0.197680    -3.184584    2.003783    0.121233    1.171845    7.055165    0.043166    -1.248759    -2.672442    0.406258    11.144459    -0.580941    0.278562    -12.456836    -3.216815    -8.152208    -0.844184    -10.696362    0.507024    91.648796    -2.844951    10.733642    -11.274905    -0.852876    0.268048    20.152435    -4.847949    -0.030377    -4.818878    -8.117450    -0.587862    -90.049011    2.447185    -8.140904    2.312282    8.806783    1.954474    -1.118397    -1.100812    -1.433724    -5.917611    -9.154802    12.349376    0.000000    0.000000    0.000000    -5.225657    10.413372    4.463252    1.841320    -4.456341    2.035468    0.645778    -7.748078    -14.833698    0.000000    0.000000    0.000000    
-0.004255    0.894206    1.520763    -0.881691    2.927295    -179.071640    0.041736    -1.322731    0.241909    -3.144614    1.997793    0.135653    1.228678    6.983627    -0.005494    -1.269076    -2.570035    0.369709    11.209317    -0.325067    0.393857    -12.544748    -3.740047    -8.504846    -0.953625    -10.479181    0.611042    91.691833    -2.715658    10.514290    -11.248966    -0.869384    0.252040    20.100262    -4.815090    -0.090060    -4.814719    -8.120015    -0.615710    -90.018204    2.408866    -8.145264    2.315820    8.780010    1.932777    -1.122625    -1.076881    -1.417222    -5.926951    -9.159568    12.364085    0.000000    0.000000    0.000000    -5.223062    10.401662    4.583970    1.848376    -4.481589    1.912248    0.458792    -7.696843    -15.025619    0.000000    0.000000    0.000000    
-0.004012    0.894209    1.520769    -0.853122    2.976925    -179.070999    0.000090    -1.332973    0.287611    -3.000334    2.063088    0.150263    1.109576    6.992872    -0.025603    -1.169544    -2.597031    0.314732    10.975919    -0.105311    0.239728    -12.418271    -3.828322    -8.564296    -0.770284    -10.546389    0.768552    91.557144    -2.799279    10.579344    -11.374647    -0.881735    0.197315    20.148901    -4.943687    -0.137171    -4.807531    -8.062840    -0.531875    -89.998917    2.454557    -8.084983    2.370699    8.839103    1.924712    -1.128736    -1.105336    -1.484512    -5.930540    -9.160377    12.406328    0.000000    0.000000    0.000000    -5.173837    10.454890    4.581180    1.839213    -4.491128    1.908026    0.460265    -7.669738    -15.009563    0.000000    0.000000    0.000000    
-0.003754    0.894161    1.520974    -0.859448    2.960795    -179.078339    -0.021234    -1.333960    0.279202    -2.996522    2.018475    0.146008    1.115096    6.991164    -0.008365    -1.129816    -2.607885    0.329213    11.145764    -0.334217    0.257775    -12.632560    -3.681529    -8.520761    -0.784582    -10.565725    0.741655    91.607727    -2.771082    10.599617    -11.400941    -0.893821    0.221021    20.162567    -4.971970    -0.155238    -4.773429    -8.068749    -0.502709    -90.029762    2.482581    -8.088854    2.362147    8.783847    1.970732    -1.099411    -1.044158    -1.450352    -5.918867    -9.212044    12.346243    0.000000    0.000000    0.000000    -5.166329    10.428208    4.582678    1.821739    -4.479257    1.908845    0.579975    -7.754197    -14.791358    0.000000    0.000000    0.000000    
-0.003594    0.894136    1.521101    -0.870351    2.954730    -179.077545    0.042546    -1.269374    0.239949    -3.134162    1.849554    0.130684    1.234637    7.088089    -0.025025    -1.348889    -2.612194    0.359880    11.187876    -0.264150    0.272446    -12.627405    -3.689346    -8.501441    -0.829067    -10.773993    0.669823    91.914810    -2.694451    10.814266    -11.384268    -0.937330    0.260097    20.243513    -4.883514    -0.146573    -4.813393    -8.077371    -0.528022    -90.065529    2.505555    -8.097918    2.349874    8.788909    1.969284    -1.074682    -1.076069    -1.523935    -5.904841    -9.199424    12.412936    0.000000    0.000000    0.000000    -5.174051    10.446465    4.630872    1.824018    -4.553943    1.543538    0.675364    -7.720781    -14.460108    0.000000    0.000000    0.000000    
-0.003437    0.894186    1.521167    -0.866956    2.959494    -179.074814    0.104684    -1.131987    0.156651    -3.263238    1.573516    0.097427    1.216896    7.059129    0.048109    -1.163635    -2.403688    0.413980    11.284039    -0.193255    0.413457    -12.727220    -3.307907    -8.551901    -0.658836    -10.940636    0.652886    91.847244    -2.718417    10.980786    -11.270975    -0.846912    0.350787    20.173832    -4.801661    -0.077699    -4.797745    -8.164340    -0.591765    -90.102020    2.492398    -8.186668    2.356801    8.820453    1.961682    -1.062619    -1.143096    -1.497950    -5.974016    -9.149051    12.404006    0.000000    0.000000    0.000000    -5.162071    10.452024    4.511413    1.842031    -4.546894    1.958122    0.622865    -7.727113    -14.776574    0.000000    0.000000    0.000000    
